<?xml version="1.0" encoding="UTF-8"?>
<svg width="14px" height="14px" viewBox="0 0 14 14" version="1.1" xmlns="http://www.w3.org/2000/svg" xmlns:xlink="http://www.w3.org/1999/xlink">
    <title>形状</title>
    <g id="页面-1" stroke="none" stroke-width="1" fill="none" fill-rule="evenodd">
        <g id="邀请备份" transform="translate(-1007.000000, -884.000000)" fill="#FFFFFF" fill-rule="nonzero">
            <g id="绑定" transform="translate(1007.000000, 884.000000)">
                <path d="M7.31082401,9.59071871 C6.51134411,10.3411765 5.8117992,11.1046422 5.05129784,11.8430888 L5.05129795,11.8430887 C4.22994361,12.6538118 2.91058122,12.6538118 2.08922102,11.8430889 L2.08922103,11.8430889 C1.6837153,11.4371264 1.46629815,10.8798333 1.48961111,10.3061513 L1.48961113,10.3061508 C1.51068765,9.73491757 1.7632827,9.19693509 2.18915604,8.81624193 C2.92667624,8.06578414 3.67618865,7.32633306 4.41370495,6.58789041 L4.41370494,6.58789042 C4.59847634,6.45811223 4.71602975,6.25277584 4.73449625,6.0275486 L4.73449624,6.02754875 C4.74982299,5.80173326 4.66240662,5.58107717 4.49665097,5.42718251 L4.49665099,5.42718253 C4.17197939,5.13330013 3.67084252,5.15859095 3.37733034,5.48367227 C3.3694904,5.49235541 3.36184332,5.50121123 3.35439467,5.51023319 C2.56890567,6.29671296 1.78441602,7.04717075 1.04689191,7.8336427 L1.04689212,7.83364249 C0.215007517,8.66706495 -0.154193706,9.85688842 0.0595344411,11.0155835 L0.0595342416,11.0155824 C0.27253825,12.1745609 1.03575854,13.1571427 2.10519563,13.6491812 L2.10519559,13.6491811 C3.3398299,14.2684183 4.82873629,14.0545925 5.83975826,13.112854 C6.7321777,12.3123657 7.56463614,11.4448365 8.38509458,10.5743132 L8.38509461,10.5743132 C8.53973249,10.3758269 8.60815848,10.1234171 8.57497109,9.87388593 L8.57497111,9.87388601 C8.51530211,9.59956242 8.30130539,9.38529499 8.02732738,9.32555152 L8.02732744,9.32555153 C7.75765912,9.27165947 7.48063816,9.37417474 7.31079358,9.59071328 L7.31082401,9.59071871 Z M13.6656938,2.15718023 L13.6656938,2.15718038 C13.1637255,0.89151182 11.9563195,0.0475145464 10.5966943,0.0118678013 L10.5966943,0.0118678071 C9.75893074,-0.0592484265 8.92549052,0.191134975 8.26520327,0.712295079 C7.31382219,1.57081879 6.42140275,2.48837852 5.5289755,3.40593043 L5.52897545,3.40593048 C5.2645342,3.69772762 5.28641255,4.14891887 5.57784327,4.41369367 C5.69874704,4.523539 5.85365798,4.58848213 6.01665936,4.59765804 L6.01665935,4.59765804 C6.26949487,4.58677855 6.50998686,4.48520409 6.69421857,4.31148347 C7.49369847,3.51099516 8.27618942,2.72651661 9.07366671,1.98807397 L9.07366684,1.98807385 C9.55490846,1.5355947 10.2415594,1.37631981 10.8724966,1.57081932 L10.8724966,1.57081931 C11.9824132,1.846636 12.6588657,2.97113056 12.3833965,4.0824491 C12.2910933,4.4548247 12.0974009,4.7942505 11.8238777,5.06295152 L9.50439053,7.38636103 L9.50439058,7.38636098 C9.17330324,7.66607262 9.12873653,8.16049141 9.4044554,8.49503729 L9.40445537,8.49503727 C9.7358316,8.81656153 10.2623055,8.81656153 10.5936817,8.49503731 C11.3931616,7.694549 12.1756526,6.95809976 12.9721344,6.11159119 L12.9721343,6.1115913 C14.0181823,5.07447231 14.2962358,3.4890931 13.6656831,2.15718686 L13.6656938,2.15718023 Z M4.5915969,9.34156281 L4.59159693,9.34156284 C4.83400173,9.60184858 5.24124657,9.61609359 5.50120245,9.37338401 C5.51216298,9.36315064 5.52276323,9.35253712 5.53298373,9.34156265 C6.84279765,8.03009662 8.14895769,6.71529261 9.45143069,5.39716432 L9.45143068,5.39716432 C9.53811238,5.29095832 9.60420474,5.16946682 9.64630391,5.0389458 L9.64630393,5.03894553 C9.66810811,4.74928055 9.50907816,4.4761999 9.24656398,4.3525268 L9.24656397,4.3525268 C8.9869399,4.23582377 8.68144528,4.30707329 8.50004961,4.526633 L4.6225721,8.42000412 L4.62257212,8.4200041 C4.48705422,8.535951 4.40563512,8.70298141 4.3977184,8.88128549 L4.39771839,8.88128583 C4.39406469,9.05532989 4.46456475,9.22270504 4.59159246,9.34156661 L4.5915969,9.34156281 Z" id="形状"></path>
            </g>
        </g>
    </g>
</svg>