<?xml version="1.0" standalone="no"?><!DOCTYPE svg PUBLIC "-//W3C//DTD SVG 1.1//EN" "http://www.w3.org/Graphics/SVG/1.1/DTD/svg11.dtd"><svg t="1622561335185" class="icon" viewBox="0 0 1024 1024" version="1.1" xmlns="http://www.w3.org/2000/svg" p-id="8368" xmlns:xlink="http://www.w3.org/1999/xlink" width="200" height="200"><defs><style type="text/css"></style></defs><path d="M603.539394 803.684848H415.806061c-9.309091 0-15.515152-6.206061-15.515152-15.515151s6.206061-15.515152 15.515152-15.515152h187.733333c9.309091 0 15.515152 6.206061 15.515151 15.515152s-6.206061 15.515152-15.515151 15.515151z" fill="#2979DB" p-id="8369"></path><path d="M657.842424 760.242424c-4.654545 0-10.860606-3.10303-12.412121-7.757576-4.654545-7.757576-3.10303-17.066667 4.654545-21.721212C729.212121 682.666667 775.757576 598.884848 775.757576 505.793939c0-145.842424-119.466667-265.309091-265.309091-265.309091s-265.309091 119.466667-265.309091 265.309091c0 91.539394 46.545455 175.321212 124.121212 224.969697 7.757576 4.654545 9.309091 13.963636 4.654546 21.721212-4.654545 7.757576-13.963636 9.309091-21.721213 4.654546-86.884848-54.30303-139.636364-148.945455-139.636363-251.345455 0-162.909091 133.430303-296.339394 296.339394-296.339394S806.787879 342.884848 806.787879 505.793939c0 102.4-52.751515 197.042424-139.636364 251.345455-3.10303 3.10303-6.206061 3.10303-9.309091 3.10303z" fill="#2979DB" p-id="8370"></path><path d="M510.448485 691.975758c-9.309091 0-15.515152-6.206061-15.515152-15.515152V442.181818c0-9.309091 6.206061-15.515152 15.515152-15.515151s15.515152 6.206061 15.515151 15.515151v234.278788c0 9.309091-7.757576 15.515152-15.515151 15.515152z" fill="#2979DB" p-id="8371"></path><path d="M625.260606 535.272727c-4.654545 0-7.757576-1.551515-10.860606-4.654545l-103.951515-103.951515-103.951515 103.951515c-6.206061 6.206061-15.515152 6.206061-21.721212 0-6.206061-6.206061-6.206061-15.515152 0-21.721212l125.672727-125.672728 125.672727 125.672728c6.206061 6.206061 6.206061 15.515152 0 21.721212-3.10303 3.10303-6.206061 4.654545-10.860606 4.654545z" fill="#2979DB" p-id="8372"></path></svg>