<?xml version="1.0" encoding="UTF-8"?>
<svg width="14px" height="14px" viewBox="0 0 14 14" version="1.1" xmlns="http://www.w3.org/2000/svg" xmlns:xlink="http://www.w3.org/1999/xlink">
    <title>形状</title>
    <g id="页面-1" stroke="none" stroke-width="1" fill="none" fill-rule="evenodd" opacity="0.600242978">
        <g id="首页2-钱包连接后2" transform="translate(-807.000000, -576.000000)" fill="#FFFFFF" fill-rule="nonzero">
            <g id="编组-5" transform="translate(759.000000, 388.000000)">
                <g id="编组-3" transform="translate(24.000000, 81.000000)">
                    <g id="编组-2" transform="translate(24.000000, 106.000000)">
                        <g id="copy" transform="translate(0.000000, 1.000000)">
                            <path d="M12,14 L6,14 C4.86666719,14 4,13.1333328 4,12 L4,6 C4,4.86666719 4.86666719,4 6,4 L12,4 C13.1333328,4 14,4.86666719 14,6 L14,12 C14,13.1333328 13.1333328,14 12,14 Z M6,5.33332812 C5.6,5.33332812 5.33333281,5.59999531 5.33333281,5.99999531 L5.33333281,11.9999953 C5.33333281,12.3999953 5.6,12.6666625 6,12.6666625 L12,12.6666625 C12.4,12.6666625 12.6666672,12.3999953 12.6666672,11.9999953 L12.6666672,5.99999531 C12.6666672,5.59999531 12.4,5.33332812 12,5.33332812 L6,5.33332812 Z" id="形状"></path>
                            <path d="M2.66666719,10 L2,10 C0.866667188,10 0,9.13333139 0,8 L0,2 C0,0.866667052 0.866667188,0 2,0 L8,0 C9.13333281,0 10,0.866667052 10,2 L10,2.66666677 C10,3.06666671 9.73333281,3.33333385 9.33333281,3.33333385 C8.93333281,3.33333385 8.66666563,3.06666671 8.66666563,2.66666677 L8.66666563,2 C8.66666563,1.59999975 8.39999844,1.3333326 8,1.3333326 L2,1.3333326 C1.59999844,1.3333326 1.33333125,1.59999975 1.33333125,2 L1.33333125,8 C1.33333125,8.39999869 1.59999844,8.66666583 2,8.66666583 L2.66666562,8.66666583 C3.06666562,8.66666583 3.33333281,8.93333298 3.33333281,9.33333292 C3.33333281,9.73333285 3.06666562,10 2.66666562,10 L2.66666719,10 Z" id="路径"></path>
                        </g>
                    </g>
                </g>
            </g>
        </g>
    </g>
</svg>