<svg id="huobi-light" xmlns="http://www.w3.org/2000/svg" width="45.781" height="68.672" viewBox="0 0 45.781 68.672">
  <path id="Path_100" data-name="Path 100" d="M28.613,21.135c0-9.86-4.673-18.339-8.228-21.1-.014-.009-.272-.157-.25.237,0,.005,0,.007,0,.012-.3,19.038-9.758,24.2-14.961,31.148C-6.835,47.471,4.33,65.057,15.7,68.307c6.362,1.819-1.469-3.218-2.478-13.856C12,41.593,28.613,31.779,28.613,21.135Z" transform="translate(0 0)" fill="#fff"/>
  <path id="Path_101" data-name="Path 101" d="M21.173,10.08C20.946,12.417,18.187,17.412,14.69,22c-11.861,15.562-5.1,23.062-1.3,27.091,2.207,2.339,0,0,5.516-2.39.433-.187,10.763-5.2,11.882-16.611C31.87,19.037,24.192,12.07,21.46,10.046A.2.2,0,0,0,21.173,10.08Z" transform="translate(14.89 18.613)" fill="#01943f"/>
</svg>
