<?xml version="1.0" encoding="UTF-8"?>
<svg width="24px" height="25px" viewBox="0 0 24 25" version="1.1" xmlns="http://www.w3.org/2000/svg" xmlns:xlink="http://www.w3.org/1999/xlink">
    <title>上币申请</title>
    <g id="页面-1" stroke="none" stroke-width="1" fill="none" fill-rule="evenodd">
        <g id="首页1" transform="translate(-889.000000, -893.000000)" fill-rule="nonzero">
            <g id="编组-13" transform="translate(870.000000, 886.000000)">
                <g id="上币申请" transform="translate(19.000000, 7.000000)">
                    <path d="M23.7063214,16.244578 C23.7063214,16.244578 22.4026366,14.467602 20.1330401,14.3831228 C20.1330401,14.3831228 22.980406,10.6048639 20.2426681,5.76915865 C20.2426681,5.76915865 17.0486406,0.152749164 9.88430047,2.63177638 C9.88430047,2.63177638 3.35995106,5.06419439 5.26807141,12.6847998 L0.589621041,12.6964521 C0.589621041,12.6964521 0.103702193,12.6789736 0,13.1975011 L0,22.3270796 C0,22.3270796 0.30518074,22.7931716 0.589621041,22.807737 C0.874061342,22.8223024 1.01331857,22.7931716 1.05183653,22.807737 C1.09331741,22.8223024 3.82512947,22.8106501 3.82512947,22.8106501 C3.82512947,22.8106501 3.9347575,22.9941738 4.2043832,23 L13.5494323,23 L23.8129865,17.4593305 C23.8159494,17.4593305 24.2959424,16.9495423 23.7063214,16.244578 L23.7063214,16.244578 Z M3.77772275,21.8172914 L1.23850048,21.8172914 L1.23850048,13.6781585 L3.77772275,13.6781585 L3.77772275,21.8172914 Z M9.29764235,4.17861945 C9.29764235,4.17861945 13.8753534,0.787799614 18.4560275,5.13119513 C18.4560275,5.13119513 20.4500725,6.80621352 20.4500725,10.0542927 C20.4500725,10.0542927 20.5359972,12.2827954 18.7582453,14.4588628 C18.7582453,14.4588628 15.9908782,15.5745707 14.7938586,16.4426671 L6.55694153,13.0693258 C6.55397861,13.0664127 4.41475051,7.6510054 9.29764235,4.17861945 Z M13.1375864,21.8172914 L5.07548163,21.8172914 L5.07548163,14.0393799 C5.09622206,13.5295917 5.55843755,13.6752455 5.55843755,13.6752455 L13.7183187,17.054413 L13.7183187,17.0573261 C13.7035041,17.0660653 13.6886895,17.0748045 13.6738749,17.0864568 C11.6709411,18.3827754 8.86209314,17.4884612 8.86209314,17.4884612 C8.2576575,17.3340682 8.12728902,17.7448119 8.12728902,17.7448119 C7.96432844,18.3128616 8.30210129,18.4002538 8.30210129,18.4002538 L9.69763652,18.6857352 C12.2931543,19.1751319 14.0442399,18.1963386 14.0442399,18.1963386 L16.4975375,16.8504977 C16.5597588,16.8213669 16.624943,16.7951493 16.6871643,16.7660185 C17.5790032,16.361101 18.3197332,15.9212266 18.3197332,15.9212266 C20.7582162,14.3481659 22.613004,16.4397541 22.613004,16.4397541 L13.1375864,21.8172914 L13.1375864,21.8172914 Z" id="形状" fill="#5162B5"></path>
                    <path d="M13.3850703,2 C12.3449641,2 11.1804008,2.18349515 9.88545377,2.63203883 C9.88545377,2.63203883 3.3603431,5.06407767 5.26868609,12.6834951 L0.589689838,12.6951456 L0.583763307,12.6951456 C0.527461262,12.6951456 0.0977877621,12.7126214 0,13.1961165 L0,22.3242718 C0,22.3242718 0.305216348,22.7902913 0.589689838,22.8048544 C0.648955148,22.807767 0.702293928,22.8106796 0.749706176,22.8106796 C0.880089859,22.8106796 0.963061293,22.8019417 1.01343681,22.8019417 C1.0312164,22.8019417 1.04306946,22.8019417 1.05195926,22.807767 C1.06677559,22.8135922 1.48163276,22.8165049 1.9853879,22.8165049 C2.79139612,22.8165049 3.82557578,22.8106796 3.82557578,22.8106796 C3.82557578,22.8106796 3.93521661,22.9941748 4.20487377,23 L13.5510132,23 L23.815765,17.4601942 C23.815765,17.4601942 24.295814,16.9475728 23.7061241,16.2456311 C23.7061241,16.2456311 22.4022873,14.468932 20.1324259,14.384466 C20.1324259,14.384466 22.9801241,10.6067961 20.2420667,5.77184466 C20.24503,5.76893204 18.0996258,2 13.3850703,2 Z M14.7926215,16.4378641 L6.55474332,13.0650485 C6.55474332,13.0650485 4.41230236,7.65048544 9.29576393,4.17864078 C9.29576393,4.17864078 10.9966783,2.92038835 13.3613642,2.92038835 C14.8755929,2.92038835 16.6654053,3.43592233 18.4522544,5.13106796 C18.4522544,5.13106796 20.4465321,6.80582524 20.4465321,10.0533981 C20.4465321,10.0533981 20.5324668,12.2815534 18.7545075,14.4572816 C18.7574707,14.4543689 15.992744,15.5699029 14.7926215,16.4378641 Z M5.07607383,21.8145631 L5.07607383,14.0378641 C5.09089016,13.7145631 5.28053915,13.6563107 5.41981263,13.6563107 C5.4998208,13.6563107 5.55908611,13.676699 5.55908611,13.676699 L13.7199193,17.0553398 L13.7199193,17.0582524 C13.705103,17.0669903 13.6902867,17.0757282 13.6754704,17.0873786 C12.833903,17.6320388 11.8471355,17.7893204 10.9907518,17.7893204 C9.80840886,17.7893204 8.86609043,17.4893204 8.86609043,17.4893204 C8.77126593,17.4660194 8.68533123,17.4543689 8.61421286,17.4543689 C8.22306181,17.4543689 8.13120058,17.7456311 8.13120058,17.7456311 C7.96822098,18.3135922 8.30603325,18.4009709 8.30603325,18.4009709 L9.7017313,18.6864078 C10.2203028,18.7854369 10.7062783,18.823301 11.1507681,18.823301 C12.9287275,18.823301 14.0488418,18.1970874 14.0488418,18.1970874 L16.5024257,16.8514563 C16.5646542,16.8223301 16.6298461,16.7961165 16.6920747,16.7669903 C17.5840176,16.3621359 18.324834,15.9223301 18.324834,15.9223301 C18.9915687,15.4912621 19.6138545,15.3368932 20.1679851,15.3368932 C21.6377648,15.3368932 22.6186057,16.4407767 22.6186057,16.4407767 L13.1391193,21.8145631 L5.07607383,21.8145631 Z M1.23864499,21.8145631 L1.23864499,13.6737864 L3.77816353,13.6737864 L3.77816353,21.8145631 L1.23864499,21.8145631 Z" id="形状" fill="#FFFFFF"></path>
                    <path d="M11.7766706,14 L12.9196952,14 L12.9196952,13.1261588 L13.587925,13.1261588 L13.587925,14 L14.7309496,14 L14.7309496,13.0874647 C14.898007,13.0648932 15.0416178,13.0326481 15.1588511,12.987505 C15.3933177,12.8972189 15.5896835,12.7359936 15.7391559,12.5006046 C15.9150059,12.2297461 16,11.8943974 16,11.4913341 C16,10.7948408 15.7274326,10.3111649 15.1822978,10.0403063 C15.4167644,9.93389762 15.6131301,9.74365175 15.7655334,9.46634422 C15.9179367,9.18903668 15.9970692,8.8891576 15.9970692,8.56670697 C15.9970692,8.31841999 15.9501758,8.08303104 15.8534584,7.85409109 C15.7186401,7.52196695 15.5193435,7.28335349 15.2584994,7.14147521 C15.126612,7.06731157 14.9536928,7.01571947 14.7309496,6.9802499 L14.7309496,6 L13.587925,6 L13.587925,6.94800484 L12.9196952,6.94800484 L12.9196952,6 L11.7766706,6 L11.7766706,6.94800484 L11,6.94800484 L11,13.1197098 L11.7766706,13.1197098 L11.7766706,14 L11.7766706,14 Z M12.1957796,8.05078597 L13.8458382,8.05078597 C14.1213365,8.05078597 14.3177022,8.09592906 14.4349355,8.17976622 C14.5961313,8.29584845 14.6781946,8.4796453 14.6781946,8.72470778 C14.6781946,8.98266828 14.5902696,9.18903668 14.4173505,9.33413946 C14.3470106,9.39540508 14.2708089,9.43732366 14.1946073,9.45344619 C14.1184056,9.46956872 13.9953107,9.48246675 13.8194607,9.48246675 L12.1957796,9.48246675 L12.1957796,8.04756147 L12.1957796,8.05078597 Z M12.1957796,10.5884724 L13.8458382,10.5884724 C14.1213365,10.5884724 14.3177022,10.6336155 14.4349355,10.7174526 C14.5961313,10.8335349 14.6781946,11.0173317 14.6781946,11.2623942 C14.6781946,11.5203547 14.5902696,11.7267231 14.4173505,11.8718259 C14.3499414,11.9330915 14.2766706,11.9750101 14.1975381,11.9911326 C14.1184056,12.0072551 13.9923798,12.0201532 13.8194607,12.0201532 L12.1957796,12.0201532 L12.1957796,10.5884724 L12.1957796,10.5884724 Z" id="形状" fill="#5162B5"></path>
                    <path d="M14.7280188,6 L13.5849941,6 L13.5849941,6.94724124 L12.9196952,6.94724124 L12.9196952,6 L11.7766706,6 L11.7766706,6.94724124 L11,6.94724124 L11,13.113975 L11.7766706,13.113975 L11.7766706,14 L12.9196952,14 L12.9196952,13.1268627 L13.587925,13.1268627 L13.587925,14 L14.7309496,14 L14.7309496,13.0881998 C14.898007,13.0656464 15.0416178,13.0334273 15.1588511,12.9883206 C15.3933177,12.8981071 15.5896835,12.7370117 15.7391559,12.5018123 C15.9150059,12.231172 16,11.8960934 16,11.4933548 C16,10.7974225 15.7274326,10.3141361 15.1822978,10.0434958 C15.4167644,9.93717277 15.6131301,9.74708014 15.7655334,9.46999597 C15.9179367,9.1929118 15.9970692,8.89327427 15.9970692,8.57108337 C15.9970692,8.32299638 15.9501758,8.08779702 15.8534584,7.85904148 C15.7186401,7.52718486 15.5193435,7.28876359 15.2584994,7.1469996 C15.126612,7.07289569 14.9536928,7.02134515 14.7309496,6.98590415 L14.7309496,6 L14.7280188,6 L14.7280188,6 Z M12.1987104,8.05557793 L13.8458382,8.05557793 C14.1213365,8.05557793 14.3177022,8.10068466 14.4349355,8.18445429 C14.5961313,8.30044301 14.6781946,8.48409182 14.6781946,8.72895691 C14.6781946,8.98670963 14.5902696,9.1929118 14.4173505,9.3378977 C14.3470106,9.39911398 14.2708089,9.44099879 14.1946073,9.45710834 C14.1184056,9.47321788 13.9953107,9.48610552 13.8194607,9.48610552 L12.1957796,9.48610552 L12.1957796,8.05557793 L12.1928488,8.05557793 L12.1987104,8.05557793 L12.1987104,8.05557793 Z M12.1987104,10.5912203 L13.8458382,10.5912203 C14.1213365,10.5912203 14.3177022,10.636327 14.4349355,10.7200967 C14.5961313,10.8360854 14.6781946,11.0197342 14.6781946,11.2645993 C14.6781946,11.522352 14.5902696,11.7285542 14.4173505,11.8735401 C14.3499414,11.9347563 14.2766706,11.9766412 14.1975381,11.9927507 C14.1184056,12.0088602 13.9923798,12.0217479 13.8194607,12.0217479 L12.1957796,12.0217479 L12.1957796,10.5912203 L12.1928488,10.5912203 L12.1987104,10.5912203 L12.1987104,10.5912203 Z" id="形状" fill="#FFFFFF"></path>
                </g>
            </g>
        </g>
    </g>
</svg>