<?xml version="1.0" encoding="UTF-8"?>
<svg width="36px" height="36px" viewBox="0 0 36 36" version="1.1" xmlns="http://www.w3.org/2000/svg" xmlns:xlink="http://www.w3.org/1999/xlink">
    <title>路径</title>
    <g id="页面-1" stroke="none" stroke-width="1" fill="none" fill-rule="evenodd">
        <g id="bridge" transform="translate(-1322.000000, -532.000000)" fill-rule="nonzero">
            <g id="BNB" transform="translate(1322.000000, 532.000000)">
                <path d="M36,18 C36,27.94104 27.9413916,36 18,36 C8.05878424,36 0,27.94104 0,18 C0,8.05860844 8.05878424,0 18,0 C27.9413916,0 36,8.05860844 36,18" id="路径" fill="#353535"></path>
                <g id="bsc" transform="translate(7.000000, 6.000000)" fill="#F0B909">
                    <path d="M10.8692563,0.417385654 L4.41424987,4.14078686 L6.78793231,5.51601558 L10.8698505,3.1684643 L14.9517956,5.51601558 L17.3254781,4.14078686 L10.8698505,0.417385654 L10.8692563,0.417385654 Z M14.9517956,7.46067421 L17.3254781,8.83651063 L17.3254781,11.5875893 L13.2429387,13.9351406 L13.2429387,18.6308373 L10.869864,20.006066 L8.49618151,18.6308373 L8.49618151,13.9351406 L4.41364216,11.5869816 L4.41364216,8.83590293 L6.78732461,7.46006651 L10.8692428,9.80822549 L14.9517821,7.46006651 L14.9517956,7.46067421 Z" id="形状"></path>
                    <polygon id="路径" points="17.3254781 13.5316132 17.3254781 16.2826648 14.9517956 17.6585013 14.9517956 14.9074496"></polygon>
                    <path d="M14.9280817,19.6025522 L19.0106211,17.2550009 L19.0106211,12.5592771 L21.3843035,11.1840484 L21.3843035,18.6308238 L14.9280817,22.354198 L14.9280817,19.6025252 L14.9280817,19.6025522 Z M19.0112423,7.86418807 L16.6363444,6.48835165 L19.0112423,5.11312293 L21.3849247,6.48835165 L21.3849247,9.23943029 L19.0112423,10.6152667 L19.0112423,7.86418807 Z M8.49619502,23.3502614 L8.49619502,20.5992098 L10.8692698,21.9744385 L13.2429522,20.5992098 L13.2429522,23.3502614 L10.8698775,24.7254902 L8.49619502,23.3502614 Z M6.78733812,17.6579341 L4.41365567,16.2827053 L4.41365567,13.5322479 L6.78733812,14.9074766 L6.78733812,17.6585283 L6.78733812,17.6579341 Z M10.8692563,7.86421508 L8.49618151,6.48837866 L10.8692563,5.11314994 L13.2429387,6.48837866 L10.869864,7.86421508 L10.8692563,7.86421508 Z M5.10216808,6.48837866 L2.72848563,7.86421508 L2.72848563,10.6152937 L0.354803177,9.2394573 L0.354803177,6.48837866 L2.72848563,5.11314994 L5.10216808,6.48837866 Z" id="形状"></path>
                    <polygon id="路径" points="0.354803177 11.1840484 2.72848563 12.5598848 2.72848563 17.2549874 6.81102498 19.6031464 6.81102498 22.354198 0.354803177 18.6302026 0.354803177 11.1840214"></polygon>
                </g>
            </g>
        </g>
    </g>
</svg>