<?xml version="1.0" encoding="UTF-8"?>
<svg width="24px" height="24px" viewBox="0 0 24 24" version="1.1" xmlns="http://www.w3.org/2000/svg" xmlns:xlink="http://www.w3.org/1999/xlink">
    <title>twitter</title>
    <g id="页面-1" stroke="none" stroke-width="1" fill="none" fill-rule="evenodd">
        <g id="首页1" transform="translate(-948.000000, -942.000000)" fill="#FFFFFF" fill-rule="nonzero">
            <g id="编组-12" transform="translate(876.000000, 942.000000)">
                <g id="twitter" transform="translate(72.000000, 0.000000)">
                    <path d="M20.2475884,8.08703249 C20.2475884,15.4381327 15.5691318,20.7315885 8.68810289,20.9639032 C5.77813505,21.1962179 3.78456592,20.2835531 2,18.9062589 C3.99356913,19.1385736 6.67845659,18.4582235 7.99678457,17.0643354 C6.00321543,17.0643354 4.8778135,15.902762 4.21864952,14.326341 L6.00321543,14.326341 C4.21864952,13.6293969 2.8681672,12.2521028 2.8681672,9.96214382 C3.3022508,10.1944585 3.75241158,10.4101793 4.65273312,10.4101793 C3.09324759,9.49751446 2.20900322,6.51061146 3.31832797,4.66868795 C5.31189711,6.95864691 7.75562701,9.03288511 11.7909968,9.24860588 C10.6655949,4.66868795 16.4694534,2.34554117 18.9131833,5.34903807 C20.0385852,5.1167234 20.6977492,4.66868795 21.5659164,4.18746468 C21.340836,5.34903807 20.681672,6.0293882 19.7813505,6.47742365 C20.6655949,6.47742365 21.340836,6.24510897 22,5.79707352 C21.7909968,6.70973833 20.9067524,7.63899704 20.2475884,8.08703249 Z" id="路径"></path>
                </g>
            </g>
        </g>
    </g>
</svg>