<?xml version="1.0" encoding="UTF-8"?>
<svg width="36px" height="36px" viewBox="0 0 36 36" version="1.1" xmlns="http://www.w3.org/2000/svg" xmlns:xlink="http://www.w3.org/1999/xlink">
    <title>路径</title>
    <g id="页面-1" stroke="none" stroke-width="1" fill="none" fill-rule="evenodd">
        <g id="bridge" transform="translate(-1372.000000, -532.000000)" fill-rule="nonzero">
            <g id="heco" transform="translate(1372.000000, 532.000000)">
                <path d="M0,18.0000182 L0,18.0000209 C0,27.9411653 8.05887657,36.0000419 18.0000209,36.0000419 C27.9411653,36.0000419 36.0000419,27.9411653 36.0000419,18.0000209 L36.0000419,18.0000209 C36.0000419,8.05887657 27.9411653,0 18.0000209,0 C8.05887657,0 0,8.05887657 0,18.0000209 L0,18.0000182 Z" id="路径" fill="#149343"></path>
                <path d="M17.8310093,12.8470703 L20.7080981,12.8470703 L20.7080981,15.0961271 C20.7099125,16.3364291 19.7059208,17.3433665 18.4656188,17.3451843 L17.7257929,17.3451867 C15.9378178,17.3451829 14.487369,18.7926994 14.4837277,20.5806628 L14.4837277,26.8707923 L10.8766935,26.8707923 C10.4324805,26.8707923 10.0659053,26.5383873 10.0121376,26.1087471 L10.0053486,25.9994474 L10.0053486,25.9994474 L10.0053486,20.672734 C9.84990867,16.506181 13.1015592,13.0025196 17.2681121,12.8470704 C17.4556788,12.8400729 17.6434415,12.8400729 17.8310093,12.8470703 Z M26.353742,19.860576 L26.353742,26.8707888 L22.7434134,26.8707888 C22.2992004,26.8707888 21.9326202,26.5383887 21.8788518,26.1087492 L21.8720626,25.9994495 L21.8720626,23.6484618 C23.7575814,22.9395915 25.3406201,21.6016186 26.353742,19.860576 Z M25.4857151,9 C25.9657783,9 26.3570601,9.39128463 26.3570601,9.87134493 L26.3570601,15.1980593 L26.3636364,15.4795571 C26.3636364,19.649 22.9836349,23.0290303 18.8141631,23.0290303 C18.7203058,23.0290303 18.6264566,23.02728 18.5326643,23.0237803 L15.647717,23.02372 L15.647717,20.7713741 C15.647717,19.5317628 16.6538741,18.5256057 17.8967742,18.5256057 L18.6267323,18.5256057 C20.4154558,18.5256057 21.8655029,17.0788444 21.8687974,15.2901295 L21.8687974,9 L25.4857151,9 Z M13.6123703,9.00000276 C14.0924335,9.00000276 14.4837152,9.39128738 14.4837152,9.87134769 L14.4837152,12.2223297 C12.5994218,12.9318474 11.01762,14.2697509 10.0053361,16.0102155 L10.0053361,9.00000276 L13.6123703,9.00000276 Z" id="形状结合" fill="#FFFFFF"></path>
            </g>
        </g>
    </g>
</svg>