<?xml version="1.0" encoding="UTF-8"?>
<svg width="24px" height="24px" viewBox="0 0 24 24" version="1.1" xmlns="http://www.w3.org/2000/svg" xmlns:xlink="http://www.w3.org/1999/xlink">
    <title>facebook</title>
    <g id="页面-1" stroke="none" stroke-width="1" fill="none" fill-rule="evenodd">
        <g id="首页1" transform="translate(-1020.000000, -942.000000)" fill="#FFFFFF" fill-rule="nonzero">
            <g id="编组-12" transform="translate(876.000000, 942.000000)">
                <g id="facebook" transform="translate(144.000000, 0.000000)">
                    <path d="M17.6249977,3 C18.5546846,3 19.3496054,3.33007825 20.0097671,3.99023298 C20.6699235,4.65038948 21,5.44531031 21,6.37500252 L21,17.6249934 C21,18.5546803 20.6699218,19.3496011 20.0097671,20.0097629 C19.3496106,20.6699194 18.5546898,21 17.6249977,21 L15.4218805,21 L15.4218805,14.0273395 L17.7539155,14.0273395 L18.1054777,11.3085858 L15.4218805,11.3085858 L15.4218805,9.57421164 C15.4218805,9.1367118 15.5136772,8.80858648 15.6972715,8.58983744 C15.8808643,8.3710884 16.238287,8.26171212 16.7695361,8.26171212 L18.1992218,8.24999339 L18.1992218,5.82421412 C17.7070347,5.75390168 17.0117221,5.71874545 16.1132803,5.71874545 C15.050782,5.71874545 14.2011687,6.03124559 13.5644544,6.6562441 C12.9277366,7.28124438 12.6093777,8.16405577 12.6093777,9.30468531 L12.6093777,11.3085899 L10.2656356,11.3085899 L10.2656356,14.0273436 L12.6093777,14.0273436 L12.6093777,21 L6.37500231,21 C5.44531543,21 4.65039464,20.6699218 3.99023292,20.009767 C3.33007647,19.3496105 3,18.5546897 3,17.6249975 L3,6.37500664 C3,5.4453197 3.33007823,4.65039886 3.99023292,3.9902371 C4.65038937,3.3300806 5.44531016,3 6.37500231,3 L17.6249924,3 L17.6249977,3 Z" id="路径"></path>
                </g>
            </g>
        </g>
    </g>
</svg>