<?xml version="1.0" encoding="UTF-8"?>
<svg width="24px" height="24px" viewBox="0 0 24 24" version="1.1" xmlns="http://www.w3.org/2000/svg" xmlns:xlink="http://www.w3.org/1999/xlink">
    <title>形状</title>
    <defs>
        <path d="M11.8357664,4.5 L11.8357662,4.5 C14.0731237,4.5 15.8868611,6.26162632 15.8868611,8.43470145 C15.8868611,10.6077766 14.0731237,12.3694029 11.8357662,12.3694029 L11.8357665,12.3694029 C8.63090221,12.3694027 6.03284677,14.8928127 6.03284677,18.0055969 C6.03284677,18.0055969 6.03284677,18.005597 6.03284677,18.005597 L6.03284677,18.005597 C6.03284677,18.4167202 5.68970808,18.75 5.26642341,18.75 C4.84313874,18.75 4.5,18.4167202 4.5,18.005597 L4.5,18.0047435 C4.5,15.0779936 6.34220461,12.448739 9.14534672,11.3747882 L9.14534642,11.3747879 C7.47355296,9.93060625 7.323671,7.44354261 8.81057167,5.81978039 C9.57888714,4.98074684 10.6796695,4.50051387 11.8357713,4.5 L11.8357664,4.5 Z M11.8357664,5.98880595 L11.8357663,5.98880595 C10.4449765,5.98880595 9.31751812,7.08387092 9.31751812,8.43470145 C9.31751812,9.78553197 10.4449765,10.8805969 11.8357663,10.8805969 L11.8357662,10.8805969 C13.226556,10.8805969 14.3540144,9.78553197 14.3540144,8.43470145 C14.3540144,7.08387092 13.226556,5.98880595 11.8357662,5.98880595 L11.8357664,5.98880595 Z M13.6970803,14.6026118 L18.7335766,14.6026118 C19.2445261,14.6026118 19.5,14.8507456 19.5,15.3470148 L19.5,15.3470148 C19.5,15.843284 19.2445261,16.0914178 18.7335766,16.0914178 L13.6970803,16.0914178 C13.1861308,16.0914178 12.9306569,15.843284 12.9306569,15.3470148 L12.9306569,15.3470148 C12.9306569,14.8507456 13.1861308,14.6026118 13.6970803,14.6026118 Z M16.9817518,12.9011193 L16.9817518,17.7929103 C16.9817518,18.2891795 16.7262779,18.5373133 16.2153285,18.5373133 L16.2153285,18.5373133 C15.704379,18.5373133 15.4489051,18.2891795 15.4489051,17.7929103 L15.4489051,12.9011193 C15.4489051,12.4048501 15.704379,12.1567163 16.2153285,12.1567163 L16.2153285,12.1567163 C16.7262779,12.1567163 16.9817518,12.4048501 16.9817518,12.9011193 Z" id="path-1"></path>
        <filter x="-40.0%" y="-42.1%" width="180.0%" height="184.2%" filterUnits="objectBoundingBox" id="filter-2">
            <feOffset dx="0" dy="0" in="SourceAlpha" result="shadowOffsetOuter1"></feOffset>
            <feGaussianBlur stdDeviation="2" in="shadowOffsetOuter1" result="shadowBlurOuter1"></feGaussianBlur>
            <feColorMatrix values="0 0 0 0 0.378225405   0 0 0 0 0.440508875   0 0 0 0 0.924203624  0 0 0 0.5 0" type="matrix" in="shadowBlurOuter1"></feColorMatrix>
        </filter>
    </defs>
    <g id="页面-1" stroke="none" stroke-width="1" fill="none" fill-rule="evenodd">
        <g id="邀请备份" transform="translate(-1038.000000, -914.000000)">
            <g id="编组-3" transform="translate(1038.000000, 914.000000)">
                <rect id="矩形" fill-opacity="0.3" fill="#FFFFFF" x="0" y="0" width="24" height="24" rx="6"></rect>
                <g id="形状" fill-rule="nonzero">
                    <use fill="black" fill-opacity="1" filter="url(#filter-2)" xlink:href="#path-1"></use>
                    <use fill="#FFFFFF" xlink:href="#path-1"></use>
                </g>
            </g>
        </g>
    </g>
</svg>