<?xml version="1.0" encoding="UTF-8"?>
<svg width="14px" height="14px" viewBox="0 0 14 14" version="1.1" xmlns="http://www.w3.org/2000/svg" xmlns:xlink="http://www.w3.org/1999/xlink">
    <title>问好</title>
    <g id="页面-1" stroke="none" stroke-width="1" fill="none" fill-rule="evenodd">
        <g id="首页1" transform="translate(-851.000000, -583.000000)" fill="#FFFFFF" fill-rule="nonzero">
            <g id="编组-5" transform="translate(750.000000, 172.000000)">
                <g id="问好" transform="translate(101.000000, 411.000000)">
                    <path d="M7,0 C3.13400064,0 0,3.13401576 0,7.00002053 C0,10.8660253 3.13400064,14 7,14 C10.8659857,14 14,10.8659979 14,7.00002053 C14,3.13404314 10.8660267,0 7.00002053,0 L7,0 Z M7.00000684,12.7750036 C3.81055207,12.7750036 1.22498751,10.1894491 1.22498751,7.00000684 C1.22498751,3.81056454 3.81055207,1.22502378 7.00000684,1.22502378 C10.1894616,1.22502378 12.7750262,3.81056454 12.7750262,7.00000684 C12.7750262,10.1894491 10.1894479,12.7750036 7.00000684,12.7750036 Z M6.79740965,10.064647 C6.5739778,10.064647 6.38728722,10.139772 6.23715996,10.2898302 C6.08700533,10.4401074 6.01189379,10.6267973 6.01189379,10.8501598 C6.01189379,11.0735087 6.08700533,11.2601711 6.23715996,11.4103936 C6.38728722,11.5605203 6.57400518,11.6356179 6.79740965,11.6356179 C7.02063617,11.6356179 7.2075047,11.5605203 7.35760458,11.4103936 C7.5076634,11.2601711 7.58278863,11.0735087 7.58278863,10.8501598 C7.58278863,10.6267973 7.5076634,10.4401074 7.35760458,10.2898302 C7.2075047,10.139772 7.02063617,10.064647 6.79740965,10.064647 L6.79740965,10.064647 Z M8.7207141,3.33045214 C8.51652898,3.14562399 8.27196131,3.00898093 7.9872575,2.92038607 C7.70207457,2.83195548 7.39405839,2.79150464 7.06309944,2.79907463 C6.72406399,2.80687733 6.40643813,2.85881319 6.11012605,2.95504648 C5.81355387,3.05141666 5.55568049,3.1802844 5.33619107,3.34199192 C5.11670166,3.50371313 4.94343999,3.69827412 4.816365,3.92530529 C4.68930371,4.15256917 4.62581413,4.40087296 4.62581413,4.67033987 C4.62581413,4.86292965 4.67577898,5.00931924 4.77598245,5.10927592 C4.87591215,5.20947901 5.04163118,5.26339977 5.27261936,5.27098344 C5.45742086,5.27098344 5.6383073,5.22103248 5.81552509,5.1208157 C5.99257861,5.0208864 6.08120119,4.87071866 6.08120119,4.67033987 C6.08120119,4.47020748 6.1773801,4.32384526 6.36998433,4.23143119 C6.56245166,4.1390308 6.78184526,4.08901139 7.02830201,4.08126345 C7.27477244,4.07367977 7.48645913,4.12564301 7.66378644,4.23719424 C7.84064831,4.34892341 7.92932565,4.56259417 7.92932565,4.87824758 C7.92932565,5.00931924 7.9179364,5.12663351 7.89480199,5.23060105 C7.87169496,5.3345686 7.83299616,5.43852245 7.77928053,5.54247631 C7.72511315,5.64637541 7.65024802,5.75614707 7.55385008,5.87166809 C7.45747952,5.98717541 7.34032906,6.11423621 7.20168688,6.25286417 C7.016858,6.43006757 6.85513616,6.62063139 6.71650766,6.82461038 C6.57790654,7.02878101 6.46238507,7.23293795 6.36995695,7.43669791 C6.2775562,7.64088223 6.20627758,7.83340357 6.15625798,8.0142893 C6.10604672,8.19538037 6.08114643,8.34750563 6.08114643,8.4705145 C6.08114643,8.70948243 6.15046753,8.88070377 6.28908234,8.98461656 C6.42769715,9.08851566 6.59704376,9.14050628 6.79735489,9.14050628 C6.99748807,9.14050628 7.16688944,9.08471013 7.30549056,8.97313153 C7.44411906,8.86160769 7.51342646,8.69405499 7.51342646,8.4705145 C7.51342646,8.324385 7.52300876,8.18949412 7.5423787,8.06633468 C7.5615433,7.94332581 7.6058409,7.81804457 7.67516199,7.69084689 C7.7444694,7.5638956 7.84445385,7.42153056 7.97549865,7.26356012 C8.10644762,7.10574026 8.28332318,6.91896828 8.50686454,6.70331263 C8.83779611,6.38757709 9.05925675,6.09308679 9.17101374,5.81962271 C9.28260646,5.54640504 9.34231788,5.25563813 9.3500111,4.94752734 C9.35770432,4.59346275 9.30572718,4.28158749 9.19414815,4.01194263 C9.08241853,3.74247572 8.92451592,3.51525291 8.7207141,3.33045214 L8.7207141,3.33045214 Z" id="形状"></path>
                </g>
            </g>
        </g>
    </g>
</svg>