<?xml version="1.0" standalone="no"?><!DOCTYPE svg PUBLIC "-//W3C//DTD SVG 1.1//EN" "http://www.w3.org/Graphics/SVG/1.1/DTD/svg11.dtd"><svg t="1622692263617" class="icon" viewBox="0 0 1024 1024" version="1.1" xmlns="http://www.w3.org/2000/svg" p-id="5098" xmlns:xlink="http://www.w3.org/1999/xlink" width="200" height="200"><defs><style type="text/css"></style></defs><path d="M725.301782 426.754583a42.660356 42.660356 0 0 1-30.288853-12.371504 42.660356 42.660356 0 0 1 0-60.577706L835.792106 213.4528l-140.779177-140.352573A42.660356 42.660356 0 0 1 755.590636 12.522521l170.641426 170.641426a42.660356 42.660356 0 0 1 0 60.577706l-170.641426 170.641426A42.660356 42.660356 0 0 1 725.301782 426.754583z" p-id="5099" fill="#2979DB"></path><path d="M128.056792 512.075296a42.660356 42.660356 0 0 1-42.660357-42.660357V384.094226a213.301782 213.301782 0 0 1 213.301783-213.301782h597.24499a42.660356 42.660356 0 0 1 0 85.320713H298.698218a127.981069 127.981069 0 0 0-127.98107 127.981069v85.320713a42.660356 42.660356 0 0 1-42.660356 42.660357zM298.698218 1023.999573a42.660356 42.660356 0 0 1-30.288854-12.371503l-170.641426-170.641426a42.660356 42.660356 0 0 1 0-60.577706l170.641426-170.641426a42.660356 42.660356 0 0 1 60.577707 60.577706L188.207894 810.697791l140.779177 140.352573a42.660356 42.660356 0 0 1 0 60.577706A42.660356 42.660356 0 0 1 298.698218 1023.999573z" p-id="5100" fill="#2979DB"></path><path d="M725.301782 853.358147H128.056792a42.660356 42.660356 0 0 1 0-85.320713h597.24499a127.981069 127.981069 0 0 0 127.98107-127.981069v-85.320713a42.660356 42.660356 0 0 1 85.320713 0v85.320713a213.301782 213.301782 0 0 1-213.301783 213.301782z" p-id="5101" fill="#2979DB"></path></svg>