<?xml version="1.0" encoding="UTF-8"?>
<svg width="48px" height="48px" viewBox="0 0 48 48" version="1.1" xmlns="http://www.w3.org/2000/svg" xmlns:xlink="http://www.w3.org/1999/xlink">
    <title>设置</title>
    <g id="页面-1" stroke="none" stroke-width="1" fill="none" fill-rule="evenodd">
        <g id="首页1" transform="translate(-1098.000000, -196.000000)" fill="#FFFFFF">
            <g id="编组-5" transform="translate(750.000000, 172.000000)">
                <g id="设置" transform="translate(348.000000, 24.000000)">
                    <rect id="矩形" opacity="0.297793434" x="0" y="0" width="48" height="48" rx="12"></rect>
                    <path d="M35.8379817,22.0956938 L35.7369161,21.464292 L33.8082495,20.8194203 C33.6398069,20.2974614 33.4292538,19.7872887 33.1799589,19.3006884 L34.0895484,17.4822511 L33.7172905,16.961976 L33.7172904,16.9619759 C32.9642603,15.9325778 32.0555946,15.0265557 31.0238948,14.2764135 L30.5067763,13.9026236 L28.6875972,14.8118422 L28.6875982,14.8118427 C28.1986754,14.5624177 27.6906133,14.3524058 27.1682547,14.183811 L26.5264808,12.2609793 L25.8998747,12.1633225 L25.8998753,12.1633226 C25.271919,12.0581981 24.6365407,12.0035822 23.9998491,12 L23.9998493,12 C23.3619496,12.0047314 22.7254528,12.0604725 22.096449,12.1666901 L21.4647896,12.2677144 L20.8247081,14.1972784 L20.8247086,14.1972782 C20.3029132,14.3667396 19.794959,14.576143 19.3053572,14.8236288 L17.4878625,13.9110427 L16.970744,14.2848326 C15.9381915,15.0307286 15.0336552,15.9348961 14.2807172,16.9703951 L13.9067748,17.4923539 L14.8163644,19.3107912 C14.5704383,19.7957078 14.3598852,20.3041967 14.1914427,20.8261556 L12.2610916,21.4642924 L12.160026,22.0956942 L12.1600259,22.0956951 C12.0565188,22.72525 12.0030099,23.3620056 12,24 C12,24.5893061 12.0522172,25.2106055 12.1633892,25.9026219 L12.2644547,26.5340237 L14.1931214,27.1772117 C14.3615639,27.6991706 14.5721171,28.2093433 14.821412,28.6959436 L13.9168757,30.5093297 L14.2891337,31.0245536 C14.6799203,31.5667173 15.0808134,32.0432152 15.518764,32.4809871 C15.9263948,32.8918192 16.4030871,33.2942327 16.9741072,33.7134835 L17.4929101,34.0872734 L19.3087203,33.176371 C19.7972036,33.4255643 20.3059,33.639399 20.8280718,33.8044054 L21.4681533,35.7356531 L22.1014971,35.8366774 C22.7921114,35.9461204 23.4153486,36 24.0015286,36 C24.5877085,36 25.2092613,35.9461204 25.9049289,35.8366774 L26.5365883,35.7356531 L27.1766698,33.8044054 L27.17667,33.8044053 C27.6969073,33.634354 28.2036535,33.4255458 28.6926499,33.179741 L30.511829,34.0889597 L31.0306319,33.7151698 C31.5965988,33.3077052 32.0749755,32.9069755 32.4859752,32.4860409 L32.4859761,32.4860399 C32.933641,32.0325408 33.3447934,31.5444251 33.7156038,31.0262415 L34.0895462,30.5059664 L33.1799566,28.6875292 C33.4292515,28.2009288 33.6398047,27.6941236 33.8082472,27.170481 L35.7369139,26.5256093 L35.8379794,25.8942074 C35.947467,25.2038748 35.9998495,24.5808916 35.9998495,23.9949507 L35.9998495,23.9949246 C36.0032299,23.3583321 35.9496737,22.7227025 35.8396592,22.0956679 L35.8379817,22.0956938 Z M34.1148148,23.9797969 L34.1148148,23.9915831 C34.1148148,24.3468518 34.0912329,24.7071718 34.0474378,25.0944316 L33.1142663,25.4042394 L32.288898,25.68374 L32.0362343,26.5121392 C31.8896893,26.9920046 31.6993493,27.4567163 31.4635298,27.8995395 L31.0592677,28.6639566 L31.884636,30.3140201 L31.8846365,30.3140194 C31.6570605,30.6028752 31.4129738,30.8783453 31.1535987,31.1390485 L31.1485454,31.1457835 L31.1485452,31.1457837 C30.8900704,31.4047035 30.6155273,31.64708 30.3265457,31.8714749 L28.6825469,31.0464432 L27.9195023,31.4454891 C27.4680764,31.6795288 26.994753,31.8748424 26.5130074,32.0263788 L25.6893235,32.2839908 L25.4198155,33.1006038 L25.1098813,34.031711 L25.1098821,34.0317109 C24.3777204,34.1225599 23.6371313,34.1225599 22.9049697,34.0317111 L22.5950355,33.1006039 L22.323843,32.2755722 L21.4951059,32.0230114 L21.495106,32.0230115 C21.0153317,31.8766307 20.5505831,31.6849431 20.1071424,31.4505405 L19.3390445,31.0498108 L18.5625246,31.4370706 L17.6866235,31.8748425 L17.6866242,31.874843 C17.1076742,31.4188788 16.5846812,30.8960992 16.128531,30.3173852 L16.9488461,28.6723729 L16.5496373,27.9096395 L16.5496372,27.9096394 C16.3140114,27.4639381 16.1205852,26.997198 15.9718795,26.5155042 L15.7175313,25.687105 L13.9657292,25.1045315 L13.9657291,25.1045303 C13.8747038,24.3721121 13.8747038,23.6312515 13.9657294,22.8988333 L15.7124781,22.3196273 L15.9668263,21.4929118 C16.1150557,21.0164139 16.3087646,20.5449672 16.5428997,20.0937254 L16.9437929,19.330992 L16.559744,18.5598399 L16.1217934,17.684296 C16.5833259,17.1101413 17.1071821,16.5864987 17.6798866,16.1251544 L19.3289388,16.9501861 L20.0936677,16.546089 C20.5366715,16.3154168 21.0066261,16.1201032 21.4951094,15.9685668 L22.3187932,15.7109548 L22.5916701,14.892658 L22.9016043,13.9598671 C23.2991286,13.9160899 23.6595956,13.8925175 24.0032183,13.8925175 C24.3552631,13.8925175 24.719099,13.9160899 25.1031479,13.9598671 L25.6876434,15.7042199 L26.5113272,15.9601481 C26.9897039,16.1116845 27.461343,16.3053144 27.9094,16.5359865 L28.674129,16.9367162 L30.3198123,16.1116845 C30.8925168,16.5730288 31.4197418,17.0966714 31.8863276,17.6725098 L31.0643282,19.3175221 L31.4584836,20.076888 C31.6943031,20.5314973 31.8896964,21.002944 32.0396103,21.4844932 L32.2990117,22.3095249 L33.1176423,22.5822905 L34.0491294,22.8920983 C34.0996621,23.2877768 34.1198752,23.6430456 34.1148219,23.9797932 L34.1148148,23.9797969 Z M24.0048956,19.4151826 L24.0048957,19.4151826 C21.4732759,19.4188917 19.4219172,21.4694143 19.4182062,24.0000018 L19.4182062,23.9999972 C19.4219144,26.5305848 21.4732706,28.5811069 24.0048957,28.5848164 L24.0048954,28.5848164 C26.5371758,28.5820371 28.5895583,26.5312425 28.5932693,23.9999972 L28.5932693,24.0000035 C28.5895599,21.4687583 26.5371785,19.417973 24.0048954,19.4151826 L24.0048956,19.4151826 Z M25.9082959,25.902626 L25.908296,25.9026259 C25.4044239,26.408626 24.7191287,26.6923307 24.0048957,26.6906231 C23.2873306,26.6906231 22.6101917,26.4127986 22.1014953,25.9026259 L22.1014951,25.9026256 C21.5952885,25.398959 21.3114682,24.7139433 21.3131765,24.0000015 C21.3131765,23.2810452 21.5911143,22.6058662 22.1014951,22.0973773 L22.1014952,22.0973772 C22.6053673,21.591377 23.2906625,21.3076724 24.0048955,21.30938 C24.724145,21.30938 25.3995995,21.5872045 25.9082959,22.0973772 C26.4153078,22.6075499 26.6982912,23.2810451 26.6982912,24.0000014 C26.6982912,24.7189576 26.4153078,25.3941366 25.9066114,25.9026256 L25.9082959,25.902626 Z" id="形状" fill-rule="nonzero"></path>
                </g>
            </g>
        </g>
    </g>
</svg>