<?xml version="1.0" encoding="UTF-8"?>
<svg width="32px" height="32px" viewBox="0 0 32 32" version="1.1" xmlns="http://www.w3.org/2000/svg" xmlns:xlink="http://www.w3.org/1999/xlink">
    <title>交换</title>
    <g id="页面-1" stroke="none" stroke-width="1" fill="none" fill-rule="evenodd">
        <g id="首页1" transform="translate(-944.000000, -361.000000)" fill="#FFFFFF" fill-rule="nonzero">
            <g id="编组-5" transform="translate(750.000000, 172.000000)">
                <g id="交换" transform="translate(194.000000, 189.000000)">
                    <path d="M21.8606014,2.11002363 C26.0592922,2.11002363 28.2511762,5.259095 28.3856004,10.4698556 L28.3914226,10.9798015 L28.3914226,19.8495456 L31.025622,19.8495456 L31.0256219,19.8495457 C31.5636335,19.8494207 32,20.293509 32,20.8414461 C32,21.021156 31.9521522,21.1975013 31.8614496,21.3516536 L27.0490312,29.518984 L27.0490312,29.518984 C26.7717849,29.9885667 26.1732571,30.1403367 25.7121806,29.8579766 C25.5756885,29.7743895 25.4614017,29.6579938 25.3793283,29.5189837 L20.5669099,21.3516533 L20.5669099,21.3516534 C20.2903558,20.8816486 20.4402769,20.2723087 20.9017682,19.9906526 C21.0536959,19.8979286 21.2275705,19.849144 21.4046891,19.8495469 L24.0369021,19.8495469 L24.0369021,10.9798027 C24.0369021,7.77118991 23.3900566,6.64215864 22.0476646,6.55087764 L21.860601,6.54494803 L17.5060809,6.54494803 L17.5060809,2.11002363 L21.860601,2.11002363 L21.8606014,2.11002363 Z M6.28750507,2.14179812 L6.28750503,2.1417981 C6.42414914,2.22543375 6.53855076,2.34194591 6.62067141,2.4811109 L11.4330898,10.6484413 L11.4330898,10.6484413 C11.7096435,11.118446 11.5597224,11.727786 11.0982315,12.0094421 C10.9463038,12.1021661 10.7724292,12.1509507 10.5953106,12.1505478 L7.96504976,12.1505478 L7.96504976,21.020292 C7.96504976,24.2289047 8.61189529,25.357936 9.95428727,25.449217 L10.1413509,25.4551466 L14.495871,25.4551466 L14.495871,29.8900362 L10.1413509,29.8900362 C5.94266002,29.8900362 3.75077599,26.7409985 3.61635185,21.5302378 L3.61049541,21.020292 L3.61049541,12.1505478 L0.97441238,12.1505478 L0.974412354,12.1505478 C0.436400719,12.150692 0,11.7066194 0,11.1586822 C0,10.9789605 0.0478420125,10.8026026 0.138550736,10.6484399 L4.95096912,2.48110948 L4.95096912,2.48110948 C5.22809929,2.01160701 5.82641445,1.85971152 6.28750465,2.14179668 L6.28750507,2.14179812 Z" id="形状"></path>
                </g>
            </g>
        </g>
    </g>
</svg>