<?xml version="1.0" encoding="UTF-8"?>
<svg width="14px" height="14px" viewBox="0 0 14 14" version="1.1" xmlns="http://www.w3.org/2000/svg" xmlns:xlink="http://www.w3.org/1999/xlink">
    <title>形状</title>
    <g id="页面-1" stroke="none" stroke-width="1" fill="none" fill-rule="evenodd" opacity="0.600242978">
        <g id="首页2-钱包连接后2" transform="translate(-979.000000, -576.000000)" fill="#FFFFFF" fill-rule="nonzero">
            <g id="编组-5" transform="translate(759.000000, 388.000000)">
                <g id="编组-3" transform="translate(24.000000, 81.000000)">
                    <g id="编组-2" transform="translate(24.000000, 106.000000)">
                        <g id="fenxiang" transform="translate(172.000000, 1.000000)">
                            <path d="M12.5939299,8.00046848 L12.5939298,8.00046887 C12.6039338,7.61222059 12.9268018,7.30559201 13.3150759,7.31559571 C13.6892793,7.32523654 13.9903524,7.62628895 14,8.00046887 L14,12.5940256 L14,12.594026 C14,13.3705225 13.370478,14 12.5939271,14 C12.593927,14 12.5939268,14 12.5939267,14 L1.40606744,14 L1.40606738,14 C0.62951927,14 0,13.3705253 0,12.594026 L0,1.40690948 L0,1.40690967 C0,0.630413118 0.629516536,0.000935642131 1.40606738,0.000935642131 C1.40606738,0.000935642131 1.4060674,0.000935642131 1.4060674,0.000935642131 L5.99992909,0.000935642131 L5.99992906,0.000935642131 C6.38820312,0.0109391849 6.69485206,0.333785505 6.68484769,0.72203515 C6.67520603,1.09621371 6.37413247,1.3972669 5.99992906,1.40690831 L1.40606737,1.40690831 L1.40606737,12.5940248 L12.5939266,12.5940248 L12.5939299,8.00046848 Z M12.6405964,2.37798055 L7.84934083,7.16052351 L7.84934086,7.16052348 C7.57181219,7.43954856 7.12062149,7.44077766 6.84157651,7.1632674 C6.56253291,6.88575716 6.56130372,6.43459641 6.83883241,6.15556996 C6.83935358,6.15504599 6.83987556,6.15452282 6.84039834,6.15400047 L11.6494012,1.35417627 L9.26287263,1.35417627 L9.26287263,1.35417627 C8.88916009,1.37381017 8.57028905,1.08679279 8.55065357,0.713105054 C8.53101837,0.339417317 8.81805481,0.020567448 9.19176736,0.000933276361 C9.21545271,-0.000311092073 9.23918714,-0.000311092073 9.2628725,0.000933276077 L12.7101351,0.000933276077 L12.7101352,0.000933276004 C13.4214764,-9.77524784e-05 13.998968,0.575683626 14,1.28697767 C14,1.28728933 14,1.287601 14,1.28791266 L14,4.72748156 L14,4.727481 C13.9901701,5.10232811 13.6783069,5.39823385 13.3034349,5.38840515 C12.9423874,5.37893837 12.6519353,5.08850585 12.6424682,4.72748237 L12.6424682,2.37797162 L12.6405964,2.37798055 Z" id="形状"></path>
                        </g>
                    </g>
                </g>
            </g>
        </g>
    </g>
</svg>