<?xml version="1.0" encoding="UTF-8"?>
<svg width="283px" height="89px" viewBox="0 0 283 89" version="1.1" xmlns="http://www.w3.org/2000/svg" xmlns:xlink="http://www.w3.org/1999/xlink">
    <title>编组 12</title>
    <defs>
        <rect id="path-1" x="0" y="0" width="15.6153846" height="5.94871795"></rect>
        <linearGradient x1="65.3434653%" y1="32.4372577%" x2="30.1280114%" y2="62.2564803%" id="linearGradient-3">
            <stop stop-color="#CD1756" offset="0%"></stop>
            <stop stop-color="#721051" offset="100%"></stop>
        </linearGradient>
        <polygon id="path-4" points="0.0101567652 30.6238481 5.56382917 31.4200554 57.025057 8.73180342e-13 10.0308564 18.1571166"></polygon>
        <linearGradient x1="65.3434653%" y1="35.6836811%" x2="30.1280114%" y2="59.9909044%" id="linearGradient-6">
            <stop stop-color="#A91247" offset="0%"></stop>
            <stop stop-color="#58073D" offset="100%"></stop>
        </linearGradient>
        <linearGradient x1="2.63570454%" y1="61.0695471%" x2="100%" y2="37.6221221%" id="linearGradient-7">
            <stop stop-color="#930161" offset="0%"></stop>
            <stop stop-color="#950161" offset="14.1129061%"></stop>
            <stop stop-color="#FFFFFF" offset="28.890148%"></stop>
            <stop stop-color="#DD004F" offset="100%"></stop>
        </linearGradient>
        <linearGradient x1="77.8767408%" y1="0.832644073%" x2="37.7570853%" y2="100%" id="linearGradient-8">
            <stop stop-color="#5F5EDC" offset="0%"></stop>
            <stop stop-color="#B112D7" offset="100%"></stop>
        </linearGradient>
        <path d="M0.0626058771,51.3550678 C19.0085853,4.24597655 34.7356006,-10.4356799 47.2436519,7.31009843 L47.2433824,10.9072524 C36.3907519,-0.0180134448 24.5095733,13.7870039 11.5998467,52.3223044 L11.5998467,52.3223044 Z" id="path-9"></path>
        <linearGradient x1="61.6060164%" y1="0%" x2="29.3788553%" y2="100%" id="linearGradient-11">
            <stop stop-color="#594AD4" offset="0%"></stop>
            <stop stop-color="#A00DC3" offset="100%"></stop>
        </linearGradient>
        <linearGradient x1="74.671532%" y1="-8.43021304%" x2="19.52398%" y2="95.7704568%" id="linearGradient-12">
            <stop stop-color="#5F5DDC" offset="0%"></stop>
            <stop stop-color="#6757DC" offset="14.1129061%"></stop>
            <stop stop-color="#E5CFF5" offset="25.8637422%"></stop>
            <stop stop-color="#8838DA" offset="47.1884021%"></stop>
            <stop stop-color="#B112D7" offset="100%"></stop>
        </linearGradient>
        <linearGradient x1="60.3765221%" y1="0%" x2="31.5633757%" y2="100%" id="linearGradient-13">
            <stop stop-color="#4A3BCD" offset="0%"></stop>
            <stop stop-color="#900EB0" offset="100%"></stop>
        </linearGradient>
        <linearGradient x1="68.3153485%" y1="4.44901982%" x2="20.9251464%" y2="95.5509802%" id="linearGradient-14">
            <stop stop-color="#B2107B" offset="0%"></stop>
            <stop stop-color="#E81A62" offset="100%"></stop>
        </linearGradient>
        <path d="M0.087892722,51.3926135 L11.5707337,52.3873381 C27.0344213,5.45003347 41.4875683,-4.73506653 54.9301748,21.8320381 C40.7138651,-14.9951766 22.4331044,-5.14165146 0.087892722,51.3926135 Z" id="path-15"></path>
        <linearGradient x1="64.9265493%" y1="4.27420321%" x2="25.5881289%" y2="92.3961588%" id="linearGradient-17">
            <stop stop-color="#910B5E" offset="0%"></stop>
            <stop stop-color="#DD155A" offset="100%"></stop>
        </linearGradient>
        <linearGradient x1="81.730167%" y1="-3.43536096%" x2="10.804655%" y2="91.8578122%" id="linearGradient-18">
            <stop stop-color="#930161" offset="0%"></stop>
            <stop stop-color="#950161" offset="14.1129061%"></stop>
            <stop stop-color="#F7BCD5" offset="35.9793167%"></stop>
            <stop stop-color="#C20D65" offset="47.1884021%"></stop>
            <stop stop-color="#DD004F" offset="100%"></stop>
        </linearGradient>
        <linearGradient x1="64.5111803%" y1="-7.83026374%" x2="31.2059398%" y2="90.357905%" id="linearGradient-19">
            <stop stop-color="#810E5A" offset="0%"></stop>
            <stop stop-color="#CE0F51" offset="100%"></stop>
        </linearGradient>
        <filter x="-18.9%" y="-105.3%" width="137.9%" height="310.5%" filterUnits="objectBoundingBox" id="filter-20">
            <feGaussianBlur stdDeviation="7.01769809 -7.12403772" in="SourceGraphic"></feGaussianBlur>
        </filter>
    </defs>
    <g id="页面-1" stroke="none" stroke-width="1" fill="none" fill-rule="evenodd">
        <g id="bridge" transform="translate(-823.000000, -121.000000)">
            <g id="编组-12" transform="translate(823.000000, 121.000000)">
                <g id="编组" transform="translate(0.000000, 15.000000)">
                    <g id="矩形" transform="translate(19.349424, 29.883385)">
                        <mask id="mask-2" fill="white">
                            <use xlink:href="#path-1"></use>
                        </mask>
                        <use id="蒙版" fill="#5227D3" xlink:href="#path-1"></use>
                        <path d="M-0.111538462,0 L6.80384615,0 C6.41610581,0.738554615 6.05108102,1.61832032 5.7087718,2.63929712 C5.36646258,3.66027392 5.06666619,4.7634142 4.80938262,5.94871795 L-0.111538462,5.94871795 L-0.111538462,0 Z" fill="#3C15A6" mask="url(#mask-2)" transform="translate(3.346154, 2.974359) rotate(-360.000000) translate(-3.346154, -2.974359) "></path>
                    </g>
                    <g id="路径-2" transform="translate(57.151049, 38.928116) rotate(-5.000000) translate(-57.151049, -38.928116) translate(28.151049, 22.928116)">
                        <mask id="mask-5" fill="white">
                            <use xlink:href="#path-4"></use>
                        </mask>
                        <use id="蒙版" fill="url(#linearGradient-3)" xlink:href="#path-4"></use>
                        <polygon stroke="url(#linearGradient-7)" stroke-width="0.1" fill="url(#linearGradient-6)" mask="url(#mask-5)" points="1.79070553 27.5096587 5.35943232 24.9824378 57.0807715 3.08181297e-13 10.0308564 14.2467199"></polygon>
                    </g>
                    <g id="形状结合" transform="translate(26.242863, 29.673822) rotate(-5.000000) translate(-26.242863, -29.673822) translate(2.242863, 3.173822)">
                        <mask id="mask-10" fill="white">
                            <use xlink:href="#path-9"></use>
                        </mask>
                        <use id="蒙版" fill="url(#linearGradient-8)" xlink:href="#path-9"></use>
                        <path d="M2.45249482,53.9626423 C19.3674217,9.72258813 34.1080514,-5.24706454 46.6743841,9.05368426 L46.6742532,13.3959168 C36.2466744,6.06776354 25.0028324,19.5901085 12.9427271,53.9629516 Z" stroke="url(#linearGradient-12)" stroke-width="0.2" fill="url(#linearGradient-11)" mask="url(#mask-10)"></path>
                        <path d="M6.44347568,56.9451539 C21.4690491,12.1136585 35.5634506,-2.99453994 48.7266801,11.6205586 L48.7269544,17.4673366 C36.4225509,9.58558145 25.1384717,22.7447996 14.8747169,56.944991 Z" fill="url(#linearGradient-13)" mask="url(#mask-10)"></path>
                    </g>
                    <g id="路径" transform="translate(48.665775, 29.315425) rotate(-5.000000) translate(-48.665775, -29.315425) translate(21.165775, 2.815425)">
                        <mask id="mask-16" fill="white">
                            <use xlink:href="#path-15"></use>
                        </mask>
                        <use id="蒙版" fill="url(#linearGradient-14)" xlink:href="#path-15"></use>
                        <path d="M1.52052817,54.5380563 L12.3605918,54.5380563 C27.8242794,7.60075165 42.2774264,-2.58434835 55.7200329,23.9827563 C41.3735633,-12.3396334 23.3070617,-2.15453339 1.52052817,54.5380563 Z" stroke="url(#linearGradient-18)" stroke-width="0.2" fill="url(#linearGradient-17)" mask="url(#mask-16)"></path>
                        <path d="M6.49901001,57.1775741 L13.5453789,57.1775741 C29.0090665,10.2402694 43.4622136,0.0551694104 56.90482,26.6222741 C42.5583504,-9.70011562 25.7564138,0.484984379 6.49901001,57.1775741 Z" fill="url(#linearGradient-19)" mask="url(#mask-16)"></path>
                    </g>
                </g>
                <g id="编组-2" transform="translate(93.000000, 29.000000)" fill-rule="nonzero">
                    <path d="M26.0913496,29.53125 C26.2219125,29.53125 26.287194,29.4898737 26.287194,29.4071211 L26.287194,29.4071211 L26.287194,1.08090157 L26.2137524,1.03125 C25.4303744,1.03125 24.7041178,1.14710366 24.0349825,1.37881098 C21.8643728,2.32219077 20.779068,3.72898519 20.779068,5.59919425 L20.779068,5.59919425 L20.779068,12.4262848 L6.53138188,12.4262848 L6.53138188,5.59919425 C6.53138188,5.18543118 6.46610039,4.77166812 6.3355374,4.35790505 C5.35631499,2.14013502 3.65083595,1.03125 1.2191003,1.03125 C1.08853731,1.03125 1.02325581,1.06435105 1.02325581,1.13055314 L1.02325581,1.13055314 L1.02325581,29.4815984 L1.09669749,29.53125 C1.88007542,29.53125 2.60633205,29.4153963 3.27546736,29.183689 C5.44607704,28.2237587 6.53138188,26.8169643 6.53138188,24.9633057 L6.53138188,24.9633057 L6.53138188,17.3666159 L20.779068,17.3666159 L20.779068,24.9633057 C20.779068,25.3770688 20.8443495,25.7908319 20.9749125,26.2045949 C21.9541349,28.422365 23.6596139,29.53125 26.0913496,29.53125 Z M50.7922349,29.53125 L51.1839239,29.1340375 L51.1839239,28.7119991 C51.1839239,28.0665287 51.0288803,27.4541594 50.7187932,26.8748911 C50.0006968,25.352243 48.5073826,24.590919 46.2388507,24.590919 L46.2388507,24.590919 L40.4369579,24.590919 C39.0170854,24.590919 37.6053731,23.7302918 36.201821,22.0090375 L36.201821,22.0090375 L36.201821,21.9345601 L45.6023561,21.9345601 L46.9732675,21.7607796 C50.3679052,20.8173998 52.065224,18.6410061 52.065224,15.2315984 L52.065224,15.2315984 L51.8938601,13.9406577 C50.7187932,10.8126089 48.7848289,9.24858449 46.0919673,9.24858449 L46.0919673,9.24858449 L40.1921523,9.24858449 C39.3108521,9.24858449 38.0868241,9.5464939 36.5200682,10.1423127 C32.750062,12.4428354 30.8650588,15.4550305 30.8650588,19.1788981 C30.8650588,20.7180967 31.1588255,22.1497169 31.746359,23.4737587 C33.8190464,27.5120862 36.8709563,29.53125 40.9020885,29.53125 L40.9020885,29.53125 L50.7922349,29.53125 Z M45.2106671,17.0935322 L36.3731849,17.0935322 C37.4340092,15.1405706 38.8620418,14.1640897 40.6572829,14.1640897 L40.6572829,14.1640897 L45.8471617,14.1640897 C46.6958211,14.4288981 47.1201508,14.7847343 47.1201508,15.2315984 C47.1201508,16.4728876 46.4836563,17.0935322 45.2106671,17.0935322 L45.2106671,17.0935322 Z M58.3077669,7.5356054 C59.9234839,7.25424652 60.7313424,6.45982143 60.7313424,5.15233014 L60.7313424,5.15233014 L60.7313424,4.58133711 C60.2417312,3.24074477 59.4338727,2.57044861 58.3077669,2.57044861 L58.3077669,2.57044861 L57.8181557,2.62010017 C56.5288462,3.06696429 55.8841914,3.86966463 55.8841914,5.02820122 L55.8841914,5.02820122 L55.8841914,5.07785279 C55.8841914,6.43499564 56.6920499,7.25424652 58.3077669,7.5356054 Z M60.5354979,29.53125 L60.6579007,29.4071211 L60.6579007,9.07480401 L60.6089396,9.00032666 C59.9071635,9.00032666 59.2706689,9.12445557 58.6994559,9.37271341 C56.8062925,10.2995427 55.8597109,11.6815113 55.8597109,13.5186193 L55.8597109,13.5186193 L55.8597109,29.4071211 L55.9821137,29.53125 L60.5354979,29.53125 Z M69.4464218,29.53125 L69.8381108,29.1340375 L69.8381108,18.0617378 L69.9115525,17.1680096 C70.4827656,15.2315984 71.6007111,14.2633929 73.2653892,14.2633929 L73.2653892,14.2633929 L73.4367532,14.2633929 L74.4649367,14.4123476 C75.9990518,15.12402 76.7661094,16.4149608 76.7661094,18.2851699 L76.7661094,18.2851699 L76.7661094,28.8857796 C76.7661094,29.183689 76.9048325,29.3988458 77.1822789,29.53125 L77.1822789,29.53125 L81.3929353,29.53125 L81.8825465,29.0347343 L81.8825465,16.9942291 C82.5680022,15.1736716 83.6859477,14.2633929 85.2363832,14.2633929 L85.2363832,14.2633929 L85.3832666,14.2633929 C86.1829649,14.2633929 86.8765808,14.553027 87.4641142,15.1322953 C88.3127736,15.661912 88.7371033,16.8535497 88.7371033,18.7072082 L88.7371033,18.7072082 L88.7371033,24.2681838 L88.810545,25.8818598 C89.5286415,28.3147866 90.8832325,29.53125 92.874318,29.53125 L92.874318,29.53125 L93.1925653,29.53125 C93.5679339,29.53125 93.7556182,29.340919 93.7556182,28.960257 L93.7556182,28.960257 L93.7556182,17.4907448 C93.7556182,16.5639155 93.4128904,15.3226263 92.7274347,13.7668772 C90.8995528,10.7546821 88.4025357,9.24858449 85.2363832,9.24858449 C82.8536087,9.24858449 80.9114842,10.1340375 79.4100099,11.9049434 C77.6474095,10.1340375 75.6236832,9.24858449 73.3388309,9.24858449 L73.3388309,9.24858449 L71.0376583,9.57131969 C68.6712041,10.4484974 67.1044482,11.607034 66.3373907,13.0469294 C65.3255275,13.9737587 64.8195959,16.3404834 64.8195959,20.1471037 L64.8195959,20.1471037 L64.8195959,29.1340375 L65.2112849,29.53125 L69.4464218,29.53125 Z M116.424617,29.53125 L116.54702,29.4071211 L116.54702,1.22985627 L116.498059,1.15537892 C115.796283,1.15537892 115.151628,1.27950784 114.564094,1.52776568 C112.654611,2.47114547 111.699869,3.86966463 111.699869,5.72332317 L111.699869,5.72332317 L111.699869,8.85137195 L107.048562,8.85137195 C105.302282,8.85137195 103.474401,9.53821864 101.564917,10.911912 C98.8883757,13.1462326 97.5501051,15.8687936 97.5501051,19.0795949 C97.5501051,20.5194904 97.8438718,21.9345601 98.4314052,23.324804 C100.487772,27.4624347 103.768167,29.53125 108.27259,29.53125 L108.27259,29.53125 L116.424617,29.53125 Z M111.699869,24.6157448 L107.39129,24.6157448 C106.820077,24.6157448 106.159102,24.4419643 105.408365,24.0944033 C103.400959,22.9358667 102.397256,21.3221908 102.397256,19.2533754 C102.397256,18.1113894 102.707343,17.0687064 103.327517,16.1253267 C104.535225,14.5364765 105.889816,13.7420514 107.39129,13.7420514 L107.39129,13.7420514 L111.699869,13.7420514 L111.699869,24.6157448 Z M136.033546,29.53125 L137.037249,29.4319469 C139.420023,28.5878702 140.611411,27.0155706 140.611411,24.7150479 L140.611411,24.7150479 L140.611411,17.0190549 C140.611411,16.2742814 140.489008,15.5046821 140.244202,14.710257 C138.82433,10.9863894 135.805061,9.12445557 131.186395,9.12445557 L131.186395,9.12445557 L120.48839,9.12445557 L120.317026,9.32306185 L120.317026,9.86922909 L120.48839,10.9863894 C121.467612,12.8400479 122.814043,13.7668772 124.527682,13.7668772 L124.527682,13.7668772 L130.378536,13.7668772 C131.667846,13.7668772 132.671549,13.8330793 133.389645,13.9654834 C134.972722,14.5447517 135.76426,15.5626089 135.76426,17.0190549 L135.76426,17.0190549 L126.535088,17.0190549 L125.335541,17.118358 C121.989864,17.9955357 120.317026,19.9733232 120.317026,23.0517204 L120.317026,23.0517204 L120.317026,23.9702744 C120.317026,24.6653963 120.561832,25.4349956 121.051443,26.2790723 C122.487636,28.4471908 124.315518,29.53125 126.535088,29.53125 L126.535088,29.53125 L136.033546,29.53125 Z M134.393348,24.8888284 L127.538791,24.8888284 C125.825152,24.8226263 124.968333,24.3012848 124.968333,23.324804 L124.968333,23.324804 L124.968333,23.1261977 C125.164177,22.1497169 125.808832,21.6614765 126.902297,21.6614765 L126.902297,21.6614765 L135.76426,21.6614765 L135.76426,23.4985845 C135.76426,24.3426611 135.307289,24.8060758 134.393348,24.8888284 L134.393348,24.8888284 Z M149.571296,29.53125 L149.693698,29.4071211 L149.693698,5.62402003 C149.693698,5.21025697 149.636577,4.7964939 149.522335,4.38273084 C148.608394,2.18151132 147.017157,1.08090157 144.748625,1.08090157 C144.634383,1.08090157 144.577261,1.11400261 144.577261,1.1802047 L144.577261,1.1802047 L144.577261,29.4071211 L144.699664,29.53125 L149.571296,29.53125 Z M159.412481,29.53125 L159.534884,29.4071211 L159.534884,5.62402003 C159.534884,5.21025697 159.477762,4.7964939 159.36352,4.38273084 C158.449579,2.18151132 156.858342,1.08090157 154.589811,1.08090157 C154.475568,1.08090157 154.418447,1.11400261 154.418447,1.1802047 L154.418447,1.1802047 L154.418447,29.4071211 L154.540849,29.53125 L159.412481,29.53125 Z" id="Heimdall" fill-opacity="0.796630006" fill="#000000" opacity="0.600188482" filter="url(#filter-20)"></path>
                    <path d="M25.3471635,28.78125 C25.4777265,28.78125 25.543008,28.7398737 25.543008,28.6571211 L25.543008,28.6571211 L25.543008,0.330901568 L25.4695663,0.28125 C24.6861884,0.28125 23.9599318,0.397103659 23.2907964,0.628810976 C21.1201868,1.57219077 20.0348819,2.97898519 20.0348819,4.84919425 L20.0348819,4.84919425 L20.0348819,11.6762848 L5.78719583,11.6762848 L5.78719583,4.84919425 C5.78719583,4.43543118 5.72191434,4.02166812 5.59135135,3.60790505 C4.61212894,1.39013502 2.90664991,0.28125 0.47491425,0.28125 C0.344351262,0.28125 0.279069767,0.314351045 0.279069767,0.380553136 L0.279069767,0.380553136 L0.279069767,28.7315984 L0.352511448,28.78125 C1.13588938,28.78125 1.862146,28.6653963 2.53128131,28.433689 C4.70189099,27.4737587 5.78719583,26.0669643 5.78719583,24.2133057 L5.78719583,24.2133057 L5.78719583,16.6166159 L20.0348819,16.6166159 L20.0348819,24.2133057 C20.0348819,24.6270688 20.1001634,25.0408319 20.2307264,25.4545949 C21.2099488,27.672365 22.9154279,28.78125 25.3471635,28.78125 Z M50.0480488,28.78125 L50.4397378,28.3840375 L50.4397378,27.9619991 C50.4397378,27.3165287 50.2846943,26.7041594 49.9746072,26.1248911 C49.2565107,24.602243 47.7631966,23.840919 45.4946646,23.840919 L45.4946646,23.840919 L39.6927718,23.840919 C38.2728993,23.840919 36.861187,22.9802918 35.4576349,21.2590375 L35.4576349,21.2590375 L35.4576349,21.1845601 L44.8581701,21.1845601 L46.2290814,21.0107796 C49.6237191,20.0673998 51.321038,17.8910061 51.321038,14.4815984 L51.321038,14.4815984 L51.1496741,13.1906577 C49.9746072,10.0626089 48.0406429,8.49858449 45.3477813,8.49858449 L45.3477813,8.49858449 L39.4479662,8.49858449 C38.5666661,8.49858449 37.3426381,8.7964939 35.7758822,9.39231272 C32.0058759,11.6928354 30.1208728,14.7050305 30.1208728,18.4288981 C30.1208728,19.9680967 30.4146395,21.3997169 31.0021729,22.7237587 C33.0748604,26.7620862 36.1267702,28.78125 40.1579025,28.78125 L40.1579025,28.78125 L50.0480488,28.78125 Z M44.4664811,16.3435322 L35.6289988,16.3435322 C36.6898231,14.3905706 38.1178558,13.4140897 39.9130969,13.4140897 L39.9130969,13.4140897 L45.1029757,13.4140897 C45.9516351,13.6788981 46.3759648,14.0347343 46.3759648,14.4815984 C46.3759648,15.7228876 45.7394702,16.3435322 44.4664811,16.3435322 L44.4664811,16.3435322 Z M57.5635809,6.7856054 C59.1792978,6.50424652 59.9871563,5.70982143 59.9871563,4.40233014 L59.9871563,4.40233014 L59.9871563,3.83133711 C59.4975451,2.49074477 58.6896866,1.82044861 57.5635809,1.82044861 L57.5635809,1.82044861 L57.0739697,1.87010017 C55.7846601,2.31696429 55.1400054,3.11966463 55.1400054,4.27820122 L55.1400054,4.27820122 L55.1400054,4.32785279 C55.1400054,5.68499564 55.9478639,6.50424652 57.5635809,6.7856054 Z M59.7913118,28.78125 L59.9137146,28.6571211 L59.9137146,8.32480401 L59.8647535,8.25032666 C59.1629775,8.25032666 58.5264829,8.37445557 57.9552698,8.62271341 C56.0621065,9.54954268 55.1155248,10.9315113 55.1155248,12.7686193 L55.1155248,12.7686193 L55.1155248,28.6571211 L55.2379276,28.78125 L59.7913118,28.78125 Z M68.7022358,28.78125 L69.0939248,28.3840375 L69.0939248,17.3117378 L69.1673664,16.4180096 C69.7385795,14.4815984 70.8565251,13.5133929 72.5212032,13.5133929 L72.5212032,13.5133929 L72.6925671,13.5133929 L73.7207507,13.6623476 C75.2548658,14.37402 76.0219233,15.6649608 76.0219233,17.5351699 L76.0219233,17.5351699 L76.0219233,28.1357796 C76.0219233,28.433689 76.1606465,28.6488458 76.4380928,28.78125 L76.4380928,28.78125 L80.6487492,28.78125 L81.1383604,28.2847343 L81.1383604,16.2442291 C81.8238161,14.4236716 82.9417617,13.5133929 84.4921972,13.5133929 L84.4921972,13.5133929 L84.6390805,13.5133929 C85.4387788,13.5133929 86.1323947,13.803027 86.7199282,14.3822953 C87.5685876,14.911912 87.9929173,16.1035497 87.9929173,17.9572082 L87.9929173,17.9572082 L87.9929173,23.5181838 L88.066359,25.1318598 C88.7844554,27.5647866 90.1390464,28.78125 92.130132,28.78125 L92.130132,28.78125 L92.4483793,28.78125 C92.8237479,28.78125 93.0114322,28.590919 93.0114322,28.210257 L93.0114322,28.210257 L93.0114322,16.7407448 C93.0114322,15.8139155 92.6687043,14.5726263 91.9832486,13.0168772 C90.1553668,10.0046821 87.6583496,8.49858449 84.4921972,8.49858449 C82.1094226,8.49858449 80.1672982,9.38403746 78.6658238,11.1549434 C76.9032235,9.38403746 74.8794972,8.49858449 72.5946449,8.49858449 L72.5946449,8.49858449 L70.2934722,8.82131969 C67.927018,9.69849739 66.3602622,10.857034 65.5932046,12.2969294 C64.5813415,13.2237587 64.0754099,15.5904834 64.0754099,19.3971037 L64.0754099,19.3971037 L64.0754099,28.3840375 L64.4670989,28.78125 L68.7022358,28.78125 Z M115.680431,28.78125 L115.802834,28.6571211 L115.802834,0.479856272 L115.753873,0.40537892 C115.052097,0.40537892 114.407442,0.52950784 113.819908,0.777765679 C111.910425,1.72114547 110.955683,3.11966463 110.955683,4.97332317 L110.955683,4.97332317 L110.955683,8.10137195 L106.304376,8.10137195 C104.558096,8.10137195 102.730215,8.78821864 100.820731,10.161912 C98.1441896,12.3962326 96.805919,15.1187936 96.805919,18.3295949 C96.805919,19.7694904 97.0996857,21.1845601 97.6872192,22.574804 C99.7435862,26.7124347 103.023981,28.78125 107.528404,28.78125 L107.528404,28.78125 L115.680431,28.78125 Z M110.955683,23.8657448 L106.647104,23.8657448 C106.075891,23.8657448 105.414916,23.6919643 104.664179,23.3444033 C102.656773,22.1858667 101.65307,20.5721908 101.65307,18.5033754 C101.65307,17.3613894 101.963157,16.3187064 102.583331,15.3753267 C103.791039,13.7864765 105.14563,12.9920514 106.647104,12.9920514 L106.647104,12.9920514 L110.955683,12.9920514 L110.955683,23.8657448 Z M135.28936,28.78125 L136.293063,28.6819469 C138.675837,27.8378702 139.867225,26.2655706 139.867225,23.9650479 L139.867225,23.9650479 L139.867225,16.2690549 C139.867225,15.5242814 139.744822,14.7546821 139.500016,13.960257 C138.080144,10.2363894 135.060875,8.37445557 130.442209,8.37445557 L130.442209,8.37445557 L119.744204,8.37445557 L119.57284,8.57306185 L119.57284,9.11922909 L119.744204,10.2363894 C120.723426,12.0900479 122.069857,13.0168772 123.783496,13.0168772 L123.783496,13.0168772 L129.63435,13.0168772 C130.92366,13.0168772 131.927363,13.0830793 132.645459,13.2154834 C134.228536,13.7947517 135.020074,14.8126089 135.020074,16.2690549 L135.020074,16.2690549 L125.790902,16.2690549 L124.591355,16.368358 C121.245678,17.2455357 119.57284,19.2233232 119.57284,22.3017204 L119.57284,22.3017204 L119.57284,23.2202744 C119.57284,23.9153963 119.817646,24.6849956 120.307257,25.5290723 C121.74345,27.6971908 123.571332,28.78125 125.790902,28.78125 L125.790902,28.78125 L135.28936,28.78125 Z M133.649162,24.1388284 L126.794605,24.1388284 C125.080966,24.0726263 124.224147,23.5512848 124.224147,22.574804 L124.224147,22.574804 L124.224147,22.3761977 C124.419991,21.3997169 125.064646,20.9114765 126.158111,20.9114765 L126.158111,20.9114765 L135.020074,20.9114765 L135.020074,22.7485845 C135.020074,23.5926611 134.563103,24.0560758 133.649162,24.1388284 L133.649162,24.1388284 Z M148.82711,28.78125 L148.949512,28.6571211 L148.949512,4.87402003 C148.949512,4.46025697 148.892391,4.0464939 148.778149,3.63273084 C147.864208,1.43151132 146.272971,0.330901568 144.004439,0.330901568 C143.890197,0.330901568 143.833075,0.364002613 143.833075,0.430204704 L143.833075,0.430204704 L143.833075,28.6571211 L143.955478,28.78125 L148.82711,28.78125 Z M158.668295,28.78125 L158.790698,28.6571211 L158.790698,4.87402003 C158.790698,4.46025697 158.733576,4.0464939 158.619334,3.63273084 C157.705393,1.43151132 156.114156,0.330901568 153.845624,0.330901568 C153.731382,0.330901568 153.674261,0.364002613 153.674261,0.430204704 L153.674261,0.430204704 L153.674261,28.6571211 L153.796663,28.78125 L158.668295,28.78125 Z" id="Heimdall" fill="#FFFFFF"></path>
                </g>
            </g>
        </g>
    </g>
</svg>