<?xml version="1.0" encoding="UTF-8"?>
<svg width="86px" height="88px" viewBox="0 0 86 88" version="1.1" xmlns="http://www.w3.org/2000/svg" xmlns:xlink="http://www.w3.org/1999/xlink">
    <title>形状</title>
    <defs>
        <path d="M24,0 C10.6285714,0 0,10.6285714 0,24 C0,37.3714286 10.6285714,48 24,48 C37.3714286,48 48,37.3714286 48,24 C48,10.6285714 37.3714286,0 24,0 Z M37.7142857,27.4285714 L27.4285714,27.4285714 L27.4285714,37.7142857 L20.5714286,37.7142857 L20.5714286,27.4285714 L10.2857143,27.4285714 L10.2857143,20.5714286 L20.5714286,20.5714286 L20.5714286,10.2857143 L27.4285714,10.2857143 L27.4285714,20.5714286 L37.7142857,20.5714286 L37.7142857,27.4285714 Z" id="path-1"></path>
        <filter x="-62.5%" y="-62.5%" width="225.0%" height="225.0%" filterUnits="objectBoundingBox" id="filter-2">
            <feOffset dx="0" dy="0" in="SourceAlpha" result="shadowOffsetOuter1"></feOffset>
            <feGaussianBlur stdDeviation="10" in="shadowOffsetOuter1" result="shadowBlurOuter1"></feGaussianBlur>
            <feColorMatrix values="0 0 0 0 0   0 0 0 0 0   0 0 0 0 0  0 0 0 0.300761616 0" type="matrix" in="shadowBlurOuter1"></feColorMatrix>
        </filter>
    </defs>
    <g id="页面-1" stroke="none" stroke-width="1" fill="none" fill-rule="evenodd">
        <g id="no-liquidity" transform="translate(-917.000000, -520.000000)" fill-rule="nonzero">
            <g id="编组-8" transform="translate(688.000000, 272.000000)">
                <g id="编组" transform="translate(189.000000, 219.000000)">
                    <g id="形状" transform="translate(59.000000, 49.000000)">
                        <use fill="black" fill-opacity="1" filter="url(#filter-2)" xlink:href="#path-1"></use>
                        <use fill="#FFFFFF" xlink:href="#path-1"></use>
                    </g>
                </g>
            </g>
        </g>
    </g>
</svg>