<?xml version="1.0" encoding="UTF-8"?>
<svg width="36px" height="36px" viewBox="0 0 36 36" version="1.1" xmlns="http://www.w3.org/2000/svg" xmlns:xlink="http://www.w3.org/1999/xlink">
    <title>路径</title>
    <g id="页面-1" stroke="none" stroke-width="1" fill="none" fill-rule="evenodd">
        <g id="pool-your-liquidity" transform="translate(-756.000000, -404.000000)" fill-rule="nonzero">
            <g id="编组-8" transform="translate(688.000000, 272.000000)">
                <g id="编组-2" transform="translate(22.000000, 108.000000)">
                    <g id="编组-3" transform="translate(24.000000, 24.000000)">
                        <g id="usdt" transform="translate(22.000000, 0.000000)">
                            <path d="M0,18 L0,18 C0,27.9411328 8.05886719,36 18,36 C27.9411328,36 36,27.9411328 36,18 L36,18 C36,8.05886719 27.9411328,0 18,0 C8.05886719,0 0,8.05886719 0,18 L0,18 Z" id="路径" fill="#26A17B"></path>
                            <path d="M20.2369021,19.7515036 L20.2369021,19.7492552 C20.1116173,19.7582486 19.4658314,19.7964701 18.0250569,19.7964701 C16.8747153,19.7964701 16.0649203,19.7627452 15.7801822,19.7492552 L15.7801822,19.7526277 C11.3519362,19.5603957 8.04669704,18.7993367 8.04669704,17.888764 C8.04669704,16.9793154 11.3519362,16.2182564 15.7801822,16.0226519 L15.7801822,18.9949413 C16.0694761,19.0151762 16.8986333,19.0635153 18.0444191,19.0635153 C19.4191344,19.0635153 20.1082005,19.0073071 20.2369021,18.9960654 L20.2369021,16.0249002 C24.6560364,16.2193806 27.953303,16.9804395 27.953303,17.888764 C27.953303,18.7993367 24.6560364,19.5581474 20.2369021,19.7515036 M20.2369021,15.7157552 L20.2369021,13.0559834 L26.4031891,13.0559834 L26.4031891,9 L9.61389522,9 L9.61389522,13.0559834 L15.7801822,13.0559834 L15.7801822,15.714631 C10.7687927,15.9417121 7,16.921983 7,18.0956101 C7,19.2692373 10.7687927,20.248384 15.7801822,20.4765893 L15.7801822,29 L20.2369021,29 L20.2369021,20.474341 C25.2403189,20.2472599 29,19.2681131 29,18.0956101 C29,16.9231072 25.2403189,15.9439604 20.2369021,15.7157552" id="形状" fill="#FFFFFF"></path>
                        </g>
                    </g>
                </g>
            </g>
        </g>
    </g>
</svg>