<?xml version="1.0" encoding="UTF-8"?>
<svg width="414px" height="414px" viewBox="0 0 414 414" version="1.1" xmlns="http://www.w3.org/2000/svg" xmlns:xlink="http://www.w3.org/1999/xlink">
    <title>编组 10</title>
    <defs>
        <linearGradient x1="67.2172906%" y1="11.5632292%" x2="20.5997778%" y2="88.4367708%" id="linearGradient-1">
            <stop stop-color="#35AEF8" offset="0%"></stop>
            <stop stop-color="#4B7BE2" offset="49.4989035%"></stop>
            <stop stop-color="#6F2FF9" offset="100%"></stop>
        </linearGradient>
        <path d="M229.649527,0 C230.754097,5.5702536e-15 231.649527,0.8954305 231.649527,2 C231.649527,2.35060569 231.557361,2.69505124 231.382267,2.99880547 L178.065818,95.4928328 C175.923308,99.2096841 171.959522,101.5 167.669378,101.5 L129.893991,101.5 L129.558328,101.502103 C119.116298,101.590011 114.41803,104.435919 110.746489,110.511894 L89.3562993,147.62111 C88.2995749,150.884808 91.715035,151.775371 92.9511445,151.900682 L196.961433,151.931891 C201.251572,151.933201 205.214655,154.224723 207.356031,157.942222 L231.49787,199.853258 C232.049204,200.810392 231.720238,202.033246 230.763104,202.58458 C230.459296,202.759581 230.114822,202.851643 229.764215,202.851536 L123.205457,202.81899 C118.915319,202.817679 114.952235,200.526158 112.810859,196.808658 L90.5122225,158.096261 C88.8177919,155.776963 85.7640354,154.705951 83.3672099,158.010122 L60.8972043,196.992833 C58.7546949,200.709684 54.7909081,203 50.5007647,203 L2.23499079,203 C1.13042129,203 0.234990793,202.104569 0.234990793,201 C0.234990793,200.649394 0.327157434,200.304949 0.502250873,200.001195 L53.8187005,107.507167 C55.9612098,103.790316 59.9249967,101.5 64.21514,101.5 L104.639514,101.500196 C104.664502,101.500065 104.689599,101.5 104.714803,101.5 C113.303303,101.5 116.232559,100.148202 118.835089,96.4818658 L143.398985,53.8686489 C144.714297,51.2038077 141.582025,51.0272475 140.202364,51.0218492 L140.033646,51.021922 C139.928397,51.0223611 139.838277,51.0233311 139.767302,51.0233311 L139.742991,51.019 L35.3288213,50.9881544 C31.0386927,50.9868341 27.075622,48.6953138 24.9342514,44.9778231 L0.792249899,3.06650532 C0.240916173,2.10937163 0.569882043,0.886517175 1.52701573,0.335183449 C1.83082524,0.160181328 2.17530131,0.0681194934 2.52590928,0.0682273974 L109.084834,0.101022223 C113.374963,0.102342564 117.338033,2.39386285 119.479404,6.11135355 L142.229433,45.6067434 C143.570351,47.5797272 145.842197,49.4154505 148.093514,45.6374953 C148.246341,45.3810356 148.385778,45.1678298 148.511826,44.9978779 L170.987314,6.00716717 C173.129823,2.29031586 177.09361,-1.24596934e-15 181.383754,0 L229.649527,0 Z" id="path-2"></path>
    </defs>
    <g id="页面-1" stroke="none" stroke-width="1" fill="none" fill-rule="evenodd">
        <g id="编组-10">
            <circle id="椭圆形备份-5" fill="#FFFFFF" cx="207" cy="207" r="207"></circle>
            <g id="椭圆形备份-6" transform="translate(91.000000, 106.000000)">
                <mask id="mask-3" fill="white">
                    <use xlink:href="#path-2"></use>
                </mask>
                <use id="蒙版" fill="url(#linearGradient-1)" xlink:href="#path-2"></use>
            </g>
        </g>
    </g>
</svg>